<svg xmlns="http://www.w3.org/2000/svg" width="27.801" height="27.806" viewBox="0 0 27.801 27.806">
  <g id="facebook_" data-name="facebook " transform="translate(0)">
    <path id="Path_152" data-name="Path 152" d="M79.132,92.41H77.394a1.626,1.626,0,0,0-.209-.045A13.92,13.92,0,0,1,64.567,80.878c-.088-.5-.139-1-.207-1.5V77.64c.088-.607.152-1.218.267-1.82A13.911,13.911,0,0,1,76.9,64.672a13.368,13.368,0,0,1,8.478,1.9,13.585,13.585,0,0,1,6.778,11.672,13.106,13.106,0,0,1-2.3,7.92,13.686,13.686,0,0,1-9.171,6.026C80.172,92.291,79.65,92.34,79.132,92.41ZM79.3,76.059c0-.488,0-.931,0-1.374a.623.623,0,0,1,.708-.7c.4,0,.8,0,1.194,0,.188,0,.281-.073.279-.275q-.01-.936,0-1.872c0-.188-.083-.261-.262-.26-.823.007-1.648-.02-2.469.023a2.4,2.4,0,0,0-2.193,1.84,5.045,5.045,0,0,0-.085,1.049c-.013.512,0,1.025,0,1.565h-1.03c-.386,0-.387,0-.387.4q0,.814,0,1.628c0,.357.012.368.365.369h1.052v6.613c0,.347.019.366.369.367q1.031,0,2.063,0c.388,0,.4-.011.4-.393V78.454c.557,0,1.089-.013,1.619.006.271.009.369-.092.384-.353.032-.559.083-1.118.131-1.676.029-.34.005-.371-.345-.371Z" transform="translate(-64.36 -64.605)" fill="#fff"/>
  </g>
</svg>
