<svg xmlns="http://www.w3.org/2000/svg" width="27.35" height="27.347" viewBox="0 0 27.35 27.347">
  <g id="instagram" transform="translate(0)">
    <path id="Path_153" data-name="Path 153" d="M97.75,88.718A13.675,13.675,0,1,1,84.086,75.05,13.692,13.692,0,0,1,97.75,88.718Zm-22.4-.014h-.027c0,1.315,0,2.629,0,3.944a5.233,5.233,0,0,0,.066.906,4.646,4.646,0,0,0,4.594,3.905q4.081.041,8.162,0a4.653,4.653,0,0,0,4.68-4.737c.01-2.666.019-5.332-.011-8a5.348,5.348,0,0,0-.3-1.7,4.656,4.656,0,0,0-4.45-3.06c-2.592-.008-5.184,0-7.776,0a8.481,8.481,0,0,0-.907.051,4.61,4.61,0,0,0-4.022,4.19C75.288,85.7,75.349,87.206,75.349,88.7Z" transform="translate(-70.4 -75.05)" fill="#fff"/>
    <path id="Path_154" data-name="Path 154" d="M170.809,167.694c0,1.113,0,2.225,0,3.338a3.948,3.948,0,0,1-4.047,4.041c-2.225,0-4.449.007-6.674,0a3.949,3.949,0,0,1-3.943-3.3,4.221,4.221,0,0,1-.05-.741q-.006-3.351,0-6.7a3.925,3.925,0,0,1,4.061-4.046q3.337,0,6.674,0a3.928,3.928,0,0,1,3.932,3.3,4.459,4.459,0,0,1,.048.769C170.812,165.469,170.809,166.582,170.809,167.694Zm-7.367,4.745a4.768,4.768,0,1,0-4.837-4.773A4.812,4.812,0,0,0,163.443,172.439Zm5.016-10.67a1.359,1.359,0,1,0,1.363,1.34A1.361,1.361,0,0,0,168.459,161.768Z" transform="translate(-149.776 -154.003)" fill="#fff"/>
    <path id="Path_155" data-name="Path 155" d="M212.458,221.155a3.4,3.4,0,1,1,3.456-3.414A3.437,3.437,0,0,1,212.458,221.155Z" transform="translate(-198.777 -204.084)" fill="#fff"/>
  </g>
</svg>
