<svg xmlns="http://www.w3.org/2000/svg" width="27.694" height="27.698" viewBox="0 0 27.694 27.698">
  <g id="linkedin" transform="translate(0)">
    <path id="Path_159" data-name="Path 159" d="M64.36,79.324V77.593c.016-.079.036-.156.048-.236.092-.623.146-1.254.281-1.867a13.845,13.845,0,1,1,15.906,16.6c-.5.086-1.013.142-1.52.212H77.344a.991.991,0,0,0-.178-.044,12.3,12.3,0,0,1-3.426-.708A13.654,13.654,0,0,1,64.58,80.871C64.475,80.361,64.432,79.84,64.36,79.324Zm14.722,6.415V85.4c0-1.514,0-3.028,0-4.543a3.423,3.423,0,0,1,.309-1.6,1.652,1.652,0,0,1,1.827-.8,1.31,1.31,0,0,1,1.145,1.163,6.041,6.041,0,0,1,.108,1.1c.012,1.568.006,3.137.007,4.7v.3H85.49c.005-.083.012-.145.012-.207,0-1.739.018-3.479-.01-5.218a11.753,11.753,0,0,0-.207-2.038,2.75,2.75,0,0,0-2.014-2.31,4.961,4.961,0,0,0-1.009-.168,3.258,3.258,0,0,0-3.191,1.46.605.605,0,0,1-.094.077V76.04H76.1v9.7Zm-4.917,0v-9.7H71.18v9.7ZM72.656,74.682a1.757,1.757,0,1,0-1.75-1.752A1.759,1.759,0,0,0,72.656,74.682Z" transform="translate(-64.36 -64.608)" fill="#fff"/>
  </g>
</svg>
