<svg width="512" height="512" viewBox="0 0 512 512" fill="none" xmlns="http://www.w3.org/2000/svg">
<path fill-rule="evenodd" clip-rule="evenodd" d="M164.401 225.069C190.361 225.041 215.25 214.895 233.606 196.855C251.962 178.816 262.289 154.358 262.316 128.846V106.463C262.316 93.8266 259.782 81.3141 254.863 69.6397C249.942 57.9654 242.73 47.3582 233.638 38.4231C224.545 29.4879 213.751 22.4001 201.872 17.5644C189.992 12.7287 177.26 10.2397 164.401 10.2397C151.543 10.2397 138.81 12.7287 126.931 17.5644C115.051 22.4001 104.258 29.4879 95.1654 38.4231C86.0733 47.3582 78.8609 57.9654 73.9401 69.6397C69.0195 81.3141 66.4866 93.8266 66.4866 106.463V128.846C66.5292 154.353 76.8585 178.804 95.212 196.84C113.565 214.876 138.446 225.028 164.401 225.069ZM111.612 106.463C111.387 99.5076 112.586 92.5788 115.139 86.0881C117.691 79.5971 121.545 73.677 126.472 68.6786C131.399 63.6803 137.298 59.7062 143.818 56.9921C150.338 54.278 157.347 52.8795 164.428 52.8795C171.509 52.8795 178.518 54.278 185.038 56.9921C191.558 59.7062 197.457 63.6803 202.384 68.6786C207.31 73.677 211.165 79.5971 213.717 86.0881C216.27 92.5788 217.47 99.5076 217.244 106.463V128.846C216.807 142.326 211.051 155.11 201.194 164.493C191.337 173.876 178.152 179.123 164.428 179.123C150.705 179.123 137.519 173.876 127.662 164.493C117.805 155.11 112.049 142.326 111.612 128.846V106.463ZM254.218 453.486H74.6276C70.0508 453.486 65.6615 451.701 62.4252 448.519C59.1889 445.34 57.3708 441.025 57.3708 436.529V392.497C57.4259 372.227 63.4324 352.4 74.6693 335.399C85.9065 318.401 101.897 304.947 120.722 296.658C139.546 288.366 160.405 285.589 180.795 288.661C201.185 291.733 220.241 300.52 235.675 313.971C237.884 315.904 240.461 317.391 243.255 318.345C246.049 319.3 249.007 319.705 251.961 319.537C254.915 319.369 257.805 318.63 260.47 317.362C263.132 316.097 265.514 314.327 267.482 312.154C269.449 309.982 270.961 307.451 271.934 304.706C272.904 301.958 273.316 299.052 273.146 296.148C272.973 293.247 272.222 290.407 270.932 287.788C269.645 285.172 267.843 282.829 265.634 280.896C243.727 261.691 216.634 249.122 187.621 244.707C158.609 240.293 128.917 244.222 102.126 256.02C75.3349 267.815 52.5885 286.979 36.6309 311.196C20.6732 335.411 12.1857 363.647 12.1914 392.497V436.529C12.1914 444.582 13.8066 452.559 16.9449 460C20.0833 467.442 24.6835 474.202 30.4819 479.895C36.2803 485.588 43.1635 490.104 50.7384 493.181C58.3131 496.26 66.431 497.84 74.6276 497.832H254.218C257.271 497.979 260.321 497.515 263.184 496.467C266.048 495.421 268.664 493.812 270.878 491.742C273.09 489.672 274.852 487.18 276.057 484.42C277.259 481.66 277.88 478.688 277.88 475.685C277.88 472.683 277.259 469.711 276.057 466.951C274.852 464.192 273.09 461.7 270.878 459.63C268.664 457.56 266.048 455.951 263.184 454.905C260.321 453.856 257.271 453.393 254.218 453.54V453.486ZM476.149 330.93H325.177C319.194 330.93 313.455 328.594 309.222 324.438C304.992 320.278 302.615 314.639 302.615 308.758C302.615 302.877 304.992 297.238 309.222 293.079C313.455 288.922 319.194 286.586 325.177 286.586H476.149C479.111 286.586 482.046 287.159 484.784 288.273C487.52 289.387 490.007 291.021 492.104 293.079C494.198 295.139 495.861 297.582 496.994 300.274C498.128 302.963 498.711 305.847 498.711 308.758C498.711 311.669 498.128 314.553 496.994 317.243C495.861 319.934 494.198 322.377 492.104 324.438C490.007 326.495 487.52 328.129 484.784 329.243C482.046 330.357 479.111 330.93 476.149 330.93ZM476.146 370.062H325.175C322.122 369.915 319.072 370.381 316.207 371.427C313.345 372.475 310.726 374.082 308.513 376.152C306.301 378.224 304.541 380.714 303.337 383.474C302.132 386.233 301.513 389.206 301.513 392.209C301.513 395.211 302.132 398.183 303.337 400.943C304.541 403.702 306.301 406.194 308.513 408.264C310.726 410.336 313.345 411.943 316.207 412.989C319.072 414.037 322.122 414.501 325.175 414.354H476.146C479.196 414.501 482.246 414.037 485.111 412.989C487.976 411.943 490.594 410.336 492.806 408.264C495.02 406.194 496.78 403.702 497.984 400.943C499.186 398.183 499.808 395.211 499.808 392.209C499.808 389.206 499.186 386.233 497.984 383.474C496.78 380.714 495.02 378.224 492.806 376.152C490.594 374.082 487.976 372.475 485.111 371.427C482.246 370.381 479.196 369.915 476.146 370.062ZM325.175 453.486H391.522C394.575 453.34 397.625 453.805 400.487 454.851C403.352 455.897 405.971 457.506 408.182 459.576C410.396 461.649 412.156 464.138 413.36 466.898C414.562 469.658 415.184 472.63 415.184 475.634C415.184 478.635 414.562 481.607 413.36 484.367C412.156 487.127 410.396 489.618 408.182 491.688C405.971 493.761 403.352 495.368 400.487 496.413C397.625 497.462 394.575 497.925 391.522 497.779H325.175C322.122 497.925 319.072 497.462 316.207 496.413C313.345 495.368 310.726 493.761 308.513 491.688C306.301 489.618 304.541 487.127 303.337 484.367C302.132 481.607 301.513 478.635 301.513 475.634C301.513 472.63 302.132 469.658 303.337 466.898C304.541 464.138 306.301 461.649 308.513 459.576C310.726 457.506 313.345 455.897 316.207 454.851C319.072 453.805 322.122 453.34 325.175 453.486Z" fill="#304A6F"/>
</svg>
