<svg xmlns="http://www.w3.org/2000/svg" width="27.125" height="27.129" viewBox="0 0 27.125 27.129">
  <g id="youtube" transform="translate(0)">
    <path id="Path_157" data-name="Path 157" d="M64.36,79.024v-1.7c.016-.076.035-.153.047-.231.091-.61.143-1.229.276-1.829A13.56,13.56,0,1,1,80.261,91.531c-.493.084-.992.139-1.488.208h-1.7A.97.97,0,0,0,76.9,91.7,12.051,12.051,0,0,1,73.546,91a13.374,13.374,0,0,1-8.971-10.464C64.473,80.04,64.43,79.53,64.36,79.024Zm13.593-5.947c-1.448,0-2.9,0-4.343,0a2.7,2.7,0,0,0-2.827,2.832q0,2.264,0,4.528a2.7,2.7,0,0,0,2.825,2.835q4.317.01,8.634,0a2.7,2.7,0,0,0,2.827-2.832q0-2.264,0-4.528A3.346,3.346,0,0,0,85,75.2a2.677,2.677,0,0,0-2.728-2.125C80.83,73.072,79.392,73.077,77.953,73.077Z" transform="translate(-64.36 -64.61)" fill="#fff"/>
    <path id="Path_158" data-name="Path 158" d="M229.81,225.58l3.738,2.18-3.738,2.17Z" transform="translate(-218.101 -214.188)" fill="#fff"/>
  </g>
</svg>
